<svg width="126" height="70" viewBox="0 0 126 70" fill="none" xmlns="http://www.w3.org/2000/svg">
<path d="M7.91046 54.915C8.24615 55.2532 8.57264 55.6062 8.92269 55.9295C9.10058 56.0937 9.10089 56.1026 9.00532 55.9451C8.82683 55.6509 8.49718 55.3971 8.27197 55.1387C7.67725 54.4564 7.11489 53.7542 6.53156 53.0629C6.40229 52.9097 6.05127 52.6192 6.05127 52.3866C6.05127 52.2295 6.48031 52.2038 6.59353 52.1525C7.15901 51.8961 6.98087 50.8925 6.98087 50.3992C6.98087 50.0826 6.84864 49.3999 7.00152 49.109C7.14413 48.8376 8.17988 49.9444 8.32362 50.1287C8.66411 50.5652 7.72707 50.0817 7.54379 49.9986C7.2036 49.8444 6.86014 49.5991 6.51607 49.4836" stroke="black" stroke-width="3" stroke-linecap="round"/>
<path d="M12.8369 56.4133C13.2974 56.4597 13.678 56.8356 14.0867 57.0168C14.1999 57.0669 14.7585 57.3497 14.6961 57.3497" stroke="#CDCFF9" stroke-width="3" stroke-linecap="round"/>
<path d="M7.44549 55.5705C7.44549 56.6058 7.44549 57.6411 7.44549 58.6764C7.44549 58.7176 7.48773 59.6201 7.40417 59.2539C7.22738 58.4792 7.00705 57.7306 6.70181 56.996C6.62514 56.8115 5.78457 55.0042 5.65859 55.2063C5.29945 55.7825 5.13591 56.5874 4.93557 57.2353C4.91865 57.2901 4.69263 57.8745 4.66186 57.766C4.53321 57.3124 4.76522 57.7453 4.85811 57.9325C5.45476 59.1346 6.22489 60.2697 7.03233 61.3349C7.14784 61.4873 8.5506 63.587 8.72626 63.4887C9.18473 63.2321 7.83522 60.0063 7.7192 59.6961C7.19285 58.289 6.44567 56.9244 6.00977 55.4873C5.54858 53.9668 5.24145 52.4214 4.60505 50.9611C4.25849 50.1659 4.19189 49.5357 4.19189 48.6928C4.19189 48.2648 6.48993 49.2165 6.82059 49.3275C6.99959 49.3876 6.55635 49.0561 6.42293 48.9217C6.23011 48.7275 6.15891 48.5674 6.05109 48.3182C5.86772 47.8945 5.77221 47.3893 5.77221 46.9292C5.77221 46.701 5.76704 46.6859 5.86517 46.9084C6.19452 47.6549 7.20226 47.8654 7.81732 48.1934C8.51347 48.5646 9.16239 49.0165 9.86244 49.3691C10.1968 49.5376 10.6323 49.5503 10.9315 49.7177C11.2199 49.8791 11.6615 49.7413 11.954 49.905C12.349 50.126 12.9595 50.1315 13.3949 50.3264C13.842 50.5266 14.3076 50.5063 14.748 50.6542C15.354 50.8576 16.0814 51.0508 16.7208 51.0756C17.0317 51.0876 17.4858 51.1159 17.8053 51.1744C18.6915 51.3367 19.6371 51.6374 20.5528 51.6374C21.4273 51.6374 22.3018 51.6374 23.1763 51.6374C23.9751 51.6374 24.7739 51.6374 25.5726 51.6374C26.4377 51.6374 27.4427 51.2992 28.3149 51.164C28.7048 51.1036 29.076 50.9095 29.4769 50.8883C29.793 50.8715 30.1455 50.8583 30.453 50.7894C30.7562 50.7216 32.0619 50.5498 32.1728 50.3264" stroke="#CDCFF9" stroke-width="3" stroke-linecap="round"/>
<path d="M5.86525 49.109C6.05189 49.6966 6.02843 50.4779 6.05117 51.0964C6.06054 51.3513 6.46056 52.4947 6.09765 51.5386C5.95286 51.1571 5.60694 50.7408 5.58637 50.3264C5.57142 50.0252 5.94705 50.1391 6.16479 50.1391C6.83256 50.1391 7.47862 50.2757 8.12727 50.4304C9.65528 50.795 11.2107 51.156 12.6926 51.6842C14.059 52.1713 15.5444 52.5675 16.9791 52.8028C18.8057 53.1023 20.5835 53.1357 22.4327 53.1357C24.5795 53.1357 26.7207 53.1525 28.8625 53.0473C29.5832 53.0119 30.2595 53.2294 30.9644 53.2294" stroke="#CDCFF9" stroke-width="3" stroke-linecap="round"/>
<path d="M11.8146 63.6239C11.9336 63.4741 11.8724 63.3215 11.9333 63.1557C12.3544 62.0104 13.3313 61.0425 14.1902 60.2215C14.6861 59.7475 15.472 58.9195 16.2198 58.8636C16.9217 58.8113 17.0169 60.4514 17.0565 60.8718C17.1741 62.1227 16.9516 65.3423 14.9132 64.8569C13.4972 64.5198 12.1062 62.8924 11.2052 61.8551C9.61012 60.0187 7.91053 57.5425 7.78631 55.019C7.72497 53.7729 8.21736 53.0395 9.46992 52.9224C10.6027 52.8165 11.8168 53.012 12.7545 53.6976C13.9012 54.536 14.1197 57.0512 12.6512 57.7087C11.4995 58.2243 10.2487 56.5655 10.1206 55.5705C10.0041 54.6646 10.8241 54.268 11.577 54.1138C13.0901 53.8038 14.6395 54.0786 15.9771 54.8421C17.5684 55.7505 18.8135 57.1972 20.1913 58.385C20.6906 58.8155 21.7084 59.944 22.4636 59.9302C22.927 59.9217 23.7163 57.2628 23.4655 56.8035C23.325 56.5461 22.7665 56.5567 22.5256 56.6214C21.9936 56.7643 22.069 58.2953 22.1434 58.666C22.445 60.169 24.0789 60.8928 25.428 60.2943C27.1113 59.5476 28.2601 57.7641 29.2497 56.2884C29.9598 55.2295 30.8481 54.1818 31.4291 53.0421C31.604 52.699 31.6541 52.3916 31.8009 52.0588C31.8614 51.9217 31.9868 51.7912 31.9868 52.0328C31.9868 52.8103 31.7442 53.6081 31.6356 54.3739C31.4287 55.833 31.2465 57.2979 31.0572 58.7596C30.8375 60.4563 30.5846 62.0662 29.5182 63.4575C28.1095 65.2954 25.6972 65.3445 23.5946 65.6321C23.3528 65.6652 20.6009 66.2597 20.4805 66.0171C20.2144 65.4811 21.5211 64.0291 21.7613 63.676C22.3222 62.8513 22.8602 62.0014 23.4449 61.1944C24.0448 60.3662 24.7932 59.6985 25.4693 58.9417C26.1991 58.1248 26.5764 56.9343 26.7243 55.8618C26.8627 54.8575 25.3415 55.0073 24.736 55.1959C23.7812 55.4932 22.942 55.9229 22.3913 56.8087C21.3213 58.5298 22.1277 60.476 23.4913 61.7406C24.6629 62.8272 27.0478 63.7829 28.5783 62.8644C29.8068 62.1271 30.1555 60.6585 28.9708 59.6908C27.9485 58.8558 26.5292 58.4794 25.2937 58.1041C24.1521 57.7572 22.9624 57.3019 21.7819 57.1104C21.4554 57.0575 20.2739 56.8207 20.2739 57.3133C20.2739 57.7165 20.3581 58.2846 20.0415 58.6035C19.9716 58.6739 19.9025 57.8968 19.9021 57.8492C19.8933 56.9881 19.8782 56.1388 19.8298 55.2791C19.8158 55.0314 19.8091 54.2871 19.8091 54.5352C19.8091 54.8213 19.8091 55.1074 19.8091 55.3936C19.8091 56.6601 19.7557 57.9205 19.7161 59.1862C19.6801 60.3402 19.5427 61.4922 19.5302 62.6459C19.5287 62.7865 19.4224 63.4592 19.6232 63.1557" stroke="#CDCFF9" stroke-width="6" stroke-linecap="round"/>
<path d="M1.5 22C1.5 10.6782 10.6782 1.5 22 1.5H104C115.322 1.5 124.5 10.6782 124.5 22C124.5 33.3218 115.322 42.5 104 42.5H22C10.6782 42.5 1.5 33.3218 1.5 22Z" fill="#BEBDFF" stroke="#EAEAFF" stroke-width="3"/>
</svg>
